<!DOCTYPE svg PUBLIC "-//W3C//DTD SVG 1.1//EN" "http://www.w3.org/Graphics/SVG/1.1/DTD/svg11.dtd">
<!-- Uploaded to: SVG Repo, www.svgrepo.com, Transformed by: SVG Repo Mixer Tools -->
<svg fill="#000000" width="800px" height="800px" viewBox="0 0 24 24" id="loading" data-name="Flat Line" xmlns="http://www.w3.org/2000/svg" class="icon flat-line">
<g id="SVGRepo_bgCarrier" stroke-width="0"/>
<g id="SVGRepo_tracerCarrier" stroke-linecap="round" stroke-linejoin="round"/>
<g id="SVGRepo_iconCarrier">
<path id="secondary" d="M16,18v3H8V18a6,6,0,0,1,2.4-4.8L12,12l1.6,1.2A6,6,0,0,1,16,18ZM16,6V3H8V6a6,6,0,0,0,2.4,4.8L12,12l1.6-1.2A6,6,0,0,0,16,6Z" style="fill: #079905; stroke-width: 2;"/>
<path id="primary" d="M16,18v3H8V18a6,6,0,0,1,2.4-4.8L12,12l1.6,1.2A6,6,0,0,1,16,18ZM16,6V3H8V6a6,6,0,0,0,2.4,4.8L12,12l1.6-1.2A6,6,0,0,0,16,6ZM6,21H18M6,3H18" style="fill: none; stroke: #012303; stroke-linecap: round; stroke-linejoin: round; stroke-width: 2;"/>
</g>
</svg>